<?xml version="1.0" encoding="UTF-8"?>
<svg id="Layer_1" data-name="Layer 1" xmlns="http://www.w3.org/2000/svg" viewBox="0 0 146.63 146.63">
  <defs>
    <style>
      .cls-1 {
        fill: none;
        stroke-width: 3px;
      }

      .cls-1, .cls-2 {
        stroke: #ef5a98;
        stroke-miterlimit: 10;
      }

      .cls-3 {
        fill: #f1f2f2;
      }

      .cls-4, .cls-2 {
        fill: #ef5a98;
      }

      .cls-5 {
        fill: #c5337f;
      }
    </style>
  </defs>
  <path class="cls-1" d="M1.5,73.31C1.5,33.65,33.65,1.5,73.31,1.5s71.81,32.15,71.81,71.81"/>
  <path class="cls-1" d="M145.13,73.31c0,39.66-32.15,71.81-71.81,71.81S1.5,112.97,1.5,73.31"/>
  <path class="cls-2" d="M31.15,116.73l1.16-20.93,1.6-54.58c.04-2.08.06-4.11.06-6.11l-.06-5.22,11.4.06,11.95-.06c3.78,0,6.64.19,8.56.57,1.93.38,3.69,1.06,5.29,2.04,1.6.98,3.02,2.29,4.27,3.94,1.25,1.65,2.19,3.63,2.84,5.92.64,2.29.96,4.69.96,7.19,0,2.08-.21,4.08-.63,6.01-.42,1.93-1.09,3.76-2.01,5.5-.92,1.74-1.99,3.28-3.22,4.61-1.23,1.34-2.42,2.39-3.58,3.15-1.16.76-2.67,1.59-4.54,2.48,1.87.68,3.37,1.29,4.49,1.84,1.12.55,2.25,1.25,3.39,2.1,1.14.85,2.16,1.85,3.06,2.99.9,1.15,1.66,2.43,2.29,3.85.62,1.42,1.12,3.03,1.49,4.84.37,1.8.55,3.68.55,5.63,0,3.94-.69,7.54-2.07,10.78-1.38,3.24-3.43,5.97-6.17,8.17-2.74,2.21-5.66,3.63-8.76,4.26-3.1.64-6.53.95-10.27.95l-13.33-.06-8.7.06ZM36.08,112.73h15.99c5.04,0,8.69-.34,10.97-1.02,2.28-.68,4.45-1.79,6.51-3.34,2.06-1.55,3.7-3.82,4.93-6.81,1.23-2.99,1.85-6.14,1.85-9.45s-.57-6.01-1.71-8.49c-1.14-2.48-2.72-4.52-4.74-6.11-2.02-1.59-4.19-2.62-6.51-3.09-2.32-.47-5.05-.7-8.21-.7h-17.92l-1.16,39ZM37.41,69.72h10.86c5.69,0,9.5-.17,11.41-.51,2.46-.47,4.81-1.36,7.05-2.68,1.51-.93,2.9-2.27,4.19-4.01,1.29-1.74,2.3-3.79,3.03-6.15s1.1-4.81,1.1-7.36-.36-4.64-1.07-6.53c-.72-1.89-1.76-3.52-3.14-4.88-1.38-1.36-2.98-2.34-4.79-2.93-1.82-.59-4.65-.89-8.51-.89h-19l-1.12,35.94Z"/>
  <path class="cls-5" d="M62.3,116.73l1.58-30.22,1.47-49.56c.04-1.82.05-4.18.05-7.06l12.18.06,15.1-.06c7.09,0,12.78.64,17.06,1.91,4.28,1.27,8.09,3.89,11.44,7.86,3.34,3.97,5.71,8.46,7.11,13.49,1.4,5.03,2.09,10.44,2.09,16.25,0,6.91-1.07,13.58-3.22,20.01-2.15,6.43-5.33,11.82-9.53,16.19-4.21,4.37-8.96,7.32-14.27,8.84-5.31,1.53-11.1,2.29-17.38,2.29l-11.68-.06-12.01.06ZM67.02,112.73c6.5.13,11.63.19,15.37.19s7.52-.21,11.43-.64c3.91-.42,7.41-1.19,10.5-2.29,3.09-1.1,6.11-3.12,9.06-6.05,2.96-2.93,5.38-6.2,7.27-9.81,1.89-3.61,3.3-7.61,4.22-12s1.38-8.84,1.38-13.34-.44-8.49-1.32-12.48c-.62-2.89-1.58-5.58-2.86-8.09-1.43-2.84-3.09-5.25-4.99-7.23-1.89-1.97-3.87-3.46-5.92-4.46-2.06-1-4.63-1.71-7.71-2.13-2.79-.42-6.06-.66-9.81-.7h-13.11l-10.63.06-2.88,78.95Z"/>
  <g>
    <path class="cls-3" d="M67.37,112.36c-1.35.71-2.8,1.23-4.3,1.53.18-.19.42-.29.65-.39,1.23-.53,2.46-1.06,3.76-1.39-2.11,1.17-4.44,1.94-6.83,2.27.33-.38.78-.65,1.23-.88,1.17-.63,2.39-1.15,3.65-1.56-1.64.51-3.29.98-4.96,1.39.2-.18.47-.26.73-.34,1.67-.5,3.36-.91,5.07-1.23.07-.01.17-.02.2.05-.84.79-2.02,1.06-3.14,1.29,1.37-.28,2.73-.57,4.12-.68-1.62.65-3.34,1.06-5.08,1.22,1.03-.48,2.1-.87,3.17-1.25l-2.18.55c1.03-.56,2.12-1.02,3.23-1.4-.41.47-.91.85-1.47,1.13.51-.61,1.18-1.08,1.93-1.34-.02.37-.2.72-.5.95.19-.33.44-.62.73-.87-.27.33-.59.62-.96.84.38-.39.88-.68,1.41-.82-.72.37-1.48.69-2.25.94.11-.11.26-.17.42-.18-.7.68-1.79.74-2.66,1.19"/>
    <path class="cls-3" d="M67.09,112.35c-1.24.65-2.58,1.13-3.95,1.4l.26.1c.24-.24.58-.34.88-.47.35-.15.71-.3,1.07-.45.71-.28,1.43-.54,2.16-.73l-.3-.11c-1.98,1.09-4.16,1.82-6.4,2.13l.17.11c.56-.63,1.41-.99,2.16-1.34.82-.38,1.65-.72,2.51-1,.06-.02.3-.1.22-.2-.07-.09-.39.02-.47.05-1.61.5-3.23.96-4.86,1.36l.35.07c.14-.11.3-.17.46-.22.24-.07.47-.14.71-.21.47-.13.95-.26,1.43-.38s.92-.22,1.38-.32c.24-.05.48-.1.72-.15.12-.02.23-.05.35-.07.07-.01.14-.03.21-.04h.07c.1-.03.09-.03-.03,0l.04-.07c-.76.7-1.77.93-2.75,1.13-.1.02-.39.07-.43.19s.25.07.29.06c1.34-.28,2.67-.56,4.04-.67l.04-.21c-1.54.61-3.15,1-4.79,1.16l.05.18c1-.47,2.05-.84,3.09-1.22.06-.02.27-.09.23-.18-.04-.09-.33,0-.38,0l-2.18.55.3.11c.99-.53,2.02-.97,3.08-1.33l-.45-.04c-.38.43-.83.8-1.35,1.06l.56-.02c.45-.53,1.04-.96,1.7-1.2l-.49.02c-.02.35-.19.66-.46.88l.68-.1c.19-.32.42-.59.7-.84l-.68.1c-.25.31-.55.56-.88.77l.6-.03c.31-.31.68-.57,1.11-.69l-.24-.15c-.7.36-1.42.66-2.17.91l.45.04c.08-.06.05-.06-.07,0l-.17-.11c-.33.31-.74.47-1.17.61-.46.15-.93.29-1.37.51-.07.04-.24.13-.09.18.13.05.39-.03.51-.1.91-.47,2-.53,2.78-1.26.12-.11-.11-.11-.17-.11-.32.02-.66.13-.91.35-.07.06-.01.1.06.11.13.02.27-.02.39-.06.8-.27,1.58-.59,2.33-.98.05-.03.2-.09.13-.16s-.3,0-.37.02c-.64.18-1.23.49-1.71.96-.1.1.06.11.13.11.16,0,.34-.05.47-.14.4-.24.75-.54,1.04-.91.07-.09-.23-.07-.24-.07-.15.02-.33.06-.44.16-.3.26-.55.57-.76.91-.06.1.22.07.24.07.15-.02.32-.07.44-.16.32-.25.5-.61.53-1.01,0-.12-.47.01-.49.02-.84.3-1.58.8-2.16,1.48-.06.07.15.08.16.08.13,0,.28-.04.4-.1.6-.3,1.14-.7,1.59-1.2.16-.18-.4-.06-.45-.04-1.17.39-2.3.88-3.38,1.47-.06.03-.12.09-.04.13.08.05.27,0,.35-.02l2.18-.55-.15-.18c-1.1.4-2.2.79-3.25,1.29-.04.02-.17.07-.16.14s.16.05.2.04c1.84-.17,3.65-.6,5.36-1.29.05-.02.24-.08.24-.16s-.15-.06-.2-.06c-1.42.12-2.82.41-4.21.7l-.14.25c1.24-.26,2.58-.56,3.54-1.45.02-.02.04-.04.04-.07-.16-.19-.49-.08-.7-.04-.3.06-.6.12-.9.18-.6.13-1.19.26-1.78.41s-1.16.3-1.74.46c-.53.15-1.13.27-1.57.64-.18.15.32.08.35.07,1.7-.42,3.38-.89,5.05-1.42l-.25-.15c-.93.31-1.85.67-2.74,1.09-.43.2-.86.42-1.27.65-.39.22-.77.47-1.06.8-.1.11.09.12.17.11,2.55-.35,5.01-1.16,7.27-2.4.06-.04.12-.09.04-.13-.08-.05-.27,0-.35.02-.85.22-1.68.51-2.49.84-.4.16-.8.33-1.19.5-.36.15-.74.29-1.03.57-.14.14.21.11.26.1,1.62-.32,3.18-.88,4.64-1.65.13-.07.08-.14-.04-.15-.17,0-.36.06-.51.14h0Z"/>
  </g>
  <g>
    <path class="cls-3" d="M62.8,112.06s0-.04.03-.05c.18-.04.38-.03.56-.05.21-.03.41-.12.62-.17.22-.06.45-.09.68-.13.88-.16,1.72-.45,2.56-.75.14-.05.28-.1.39-.2s.19-.24.15-.39c-.01-.05-.07-.11-.11-.08,0,0-.02.02-.02.03-.17.33-.26.7-.39,1.05s-.31.7-.62.91c-.28.2-.64.26-.99.31-1.01.14-2.02.2-3.04.19-.1,0-.22-.01-.27-.1-.03-.06-.02-.14.04-.18.03-.02.06-.03.1-.05.59-.19,1.17-.38,1.75-.58.31-.11.63-.22.93-.37.21-.1.41-.22.63-.31.31-.13.65-.21.96-.35.13-.06.26-.14.35-.24s.16-.25.14-.39c-.38.45-.81.93-1.39,1.06-.14.03-.29.04-.43.07-.48.09-.9.38-1.37.49-.21.05-.42.06-.63.1-.31.06-.6.19-.91.22.13-.09.3-.12.45-.15,1.12-.21,2.2-.62,3.27-1.03.16-.06.32-.12.46-.21.15-.1.28-.23.38-.38"/>
    <path class="cls-3" d="M63.14,111.91h-.01s0,.1,0,.16v-.02s-.06.08-.1.11h.02c-.06.01-.12.04-.17.06.13-.03.28-.01.41-.03.18-.02.36-.07.53-.12.27-.09.54-.14.82-.19.64-.11,1.27-.29,1.88-.5.32-.11.64-.22.95-.34.28-.11.56-.28.65-.58.04-.12.04-.27-.05-.37-.16-.18-.47-.13-.65,0-.13.09-.19.26-.25.41s-.11.3-.16.45c-.15.46-.32,1.03-.8,1.23-.21.09-.49.11-.75.15-.33.04-.66.08-.98.1s-.66.04-.99.05c-.15,0-.3,0-.44,0-.07,0-.14,0-.21,0-.04,0-.08,0-.12,0-.02,0-.07.01-.04,0,0,0,0,0,0,0h0c.01-.07-.04-.03-.16.12.07,0,.16-.05.23-.07.16-.05.32-.1.48-.16.31-.1.62-.21.92-.31.34-.12.68-.23,1.01-.38.3-.13.59-.32.89-.43.58-.21,1.57-.42,1.53-1.22,0-.11-.2-.14-.28-.14-.13,0-.3.05-.38.15-.25.29-.5.59-.83.8-.12.07-.23.11-.37.14-.24.04-.47.07-.7.15-.39.13-.76.36-1.15.42-.24.04-.49.07-.72.13-.21.06-.41.13-.62.16l.19.38s.11-.04.19-.05c.1-.02.19-.04.29-.06.21-.04.42-.1.63-.15.43-.12.85-.25,1.26-.4s.85-.31,1.27-.47.77-.38,1.03-.75c.1-.15-.09-.25-.21-.26-.18-.02-.37.06-.47.21-.21.3-.54.39-.87.52-.38.15-.77.29-1.15.42s-.79.26-1.19.36-.87.13-1.24.36c-.08.05-.17.16-.11.26s.2.13.31.11c.26-.03.51-.11.77-.18.22-.06.44-.08.67-.13.25-.05.49-.12.73-.22.2-.08.42-.19.6-.25.23-.07.46-.07.7-.14.22-.06.44-.16.63-.28.37-.23.67-.57.96-.9h-.66c.02.35-.5.46-.73.54-.22.07-.43.15-.64.25s-.4.21-.6.3c-.8.36-1.66.59-2.49.87-.21.07-.49.23-.44.49.04.21.28.28.47.29.47.04.96,0,1.43-.02s.93-.06,1.39-.12.9-.1,1.31-.28c.43-.19.75-.54.94-.96.1-.22.17-.45.25-.67.07-.21.13-.46.26-.65l-.19.16h.03c-.12,0-.24.01-.37.03-.05-.05-.07-.06-.06-.02,0,.03,0,.05-.01.08,0,.02-.01.04-.03.05-.04.06-.1.08-.17.11-.2.08-.41.15-.61.22-.45.16-.91.3-1.38.42s-.93.15-1.38.29c-.22.07-.41.13-.63.14-.27.02-.62.02-.78.28-.03.06-.03.13,0,.18h.01c.18.24.87-.02.67-.29h0Z"/>
  </g>
  <g>
    <path class="cls-3" d="M61.88,115.8c.84.04,1.63-.36,2.37-.77.37-.2.73-.41,1.04-.7.28-.26.5-.57.76-.85.4-.44.88-.79,1.36-1.14-1.41,1.34-3.24,2.11-5.04,2.85-.11.05-.22.09-.33.13-.05.02-.12.03-.14-.02.83-.54,1.81-.84,2.66-1.36l-1.18.44c-.23.08-.46.17-.7.2.42-.28.86-.51,1.33-.69-.76.42-1.58.74-2.42.96.72-.43,1.48-.8,2.26-1.08-.43.31-.89.57-1.38.77.08-.15.24-.25.39-.33.31-.17.64-.33.97-.46-.64.49-1.33.92-2.06,1.28.08-.19.23-.36.4-.48.04.14.04.29,0,.43.16-.2.35-.36.57-.49-.06.21-.19.39-.36.52.16-.2.37-.37.6-.47-.12.34-.36.63-.66.82-.04.17-.06.35-.07.53.28-.27.71-.32,1.06-.47.23-.1.43-.24.63-.39.69-.52,1.31-1.15,1.83-1.84-.92.54-1.82,1.14-2.52,1.94.34-.41.79-.73,1.22-1.04.18-.12.35-.25.53-.37-.11,0-.22.05-.32.11-.58.35-1.15.71-1.73,1.07-.06.04-.13.08-.17.15-.04.07-.05.15-.08.23s-.08.16-.16.17c.15-.21.43-.27.66-.37.61-.25,1.09-.81,1.22-1.46-.3.4-.44.92-.75,1.31-.23.29-.53.5-.85.68-.07.04-.15.08-.22.04.21-.2.46-.37.73-.49"/>
    <path class="cls-3" d="M61.75,116.05c.96.04,1.83-.36,2.65-.82.41-.23.82-.46,1.17-.78s.59-.68.9-1c.35-.36.76-.66,1.17-.96l-.53-.24c-.71.68-1.55,1.2-2.43,1.65-.45.23-.91.44-1.37.64-.23.1-.46.2-.68.29-.12.05-.24.1-.37.15-.06.03-.12.05-.19.08-.16.07-.07,0,.05.04l.12.08-.02-.02-.1.3c.84-.54,1.81-.84,2.66-1.36.11-.07.18-.22.07-.32-.13-.11-.32-.07-.46-.02l-.91.34c-.25.09-.51.21-.78.25l.2.39c.39-.26.81-.48,1.25-.65l-.31-.39c-.74.4-1.52.71-2.33.92l.3.37c.69-.42,1.42-.76,2.18-1.03l-.39-.34c-.41.29-.84.53-1.3.72l.5.22c.1-.16.31-.23.46-.31.23-.12.47-.22.71-.32l-.39-.34c-.62.47-1.28.89-1.97,1.24l.5.22c.07-.15.16-.27.29-.37l-.6-.05c.03.13.03.24-.01.37s.14.2.24.21c.14.01.33-.04.43-.15.15-.18.31-.31.51-.43l-.6-.11c-.04.13-.13.25-.23.34l.53.24c.13-.16.27-.29.46-.37l-.5-.22c-.08.22-.2.43-.39.59-.13.11-.26.16-.31.35-.03.16-.05.32-.06.48,0,.14.11.2.24.21.16.02.31-.05.43-.15.22-.2.59-.23.88-.35.37-.15.7-.4,1.01-.65.61-.5,1.16-1.06,1.63-1.69.08-.11.09-.24-.05-.31-.16-.07-.34-.02-.48.07-.94.55-1.85,1.17-2.59,1.99l.6.18c.47-.56,1.1-.94,1.69-1.36.08-.06.17-.17.11-.27-.06-.11-.2-.12-.31-.12-.31,0-.57.2-.83.36s-.5.31-.75.46-.48.3-.72.45c-.12.07-.23.16-.3.28-.04.06-.05.13-.07.2,0,.02-.01.05-.02.07-.03.05-.03.05,0,0l.17-.08h-.04c.12.12.24.22.36.33.12-.16.34-.19.54-.27.25-.1.48-.25.68-.43.37-.33.63-.77.73-1.25.03-.13-.13-.2-.24-.21-.14-.01-.34.04-.43.15-.26.36-.41.77-.64,1.15-.1.17-.23.31-.38.44-.08.07-.17.13-.26.19-.04.03-.08.05-.13.08-.03.02-.06.03-.09.05-.02.01,0,0,.06-.02l.18.02h-.04c.03.1.06.2.09.31.17-.16.37-.29.58-.39.12-.06.29-.21.18-.35s-.35-.1-.49-.04c-.32.15-.61.35-.87.59-.12.11-.06.28.09.32.35.1.64-.1.92-.28.23-.15.45-.33.63-.54.34-.41.47-.93.78-1.35l-.66-.06c-.09.4-.31.77-.63,1.02-.35.27-.89.3-1.18.68-.2.26.14.38.36.32.16-.05.3-.13.39-.27.03-.05.05-.1.07-.16.01-.04.01-.11.04-.14.05-.07.2-.13.27-.18.11-.07.22-.14.34-.21.22-.14.45-.28.67-.42.11-.07.22-.14.34-.21.06-.04.14-.07.19-.12.01-.01.03-.02.05-.03-.07.01-.07.01,0,.01l-.2-.39c-.63.45-1.31.87-1.82,1.47-.1.12-.07.27.09.32s.4,0,.51-.14c.7-.78,1.56-1.36,2.46-1.88l-.53-.24c-.46.61-.99,1.17-1.59,1.65-.28.22-.58.44-.89.54-.38.12-.74.24-1.05.51l.66.06c0-.18.03-.35.07-.53l-.13.18c.35-.22.63-.55.77-.93.11-.3-.32-.31-.5-.22-.29.13-.55.32-.75.57-.09.11-.09.24.05.31s.36.03.48-.07c.24-.18.4-.41.5-.7.04-.11-.11-.19-.19-.2-.15-.03-.28.02-.41.09-.24.14-.46.33-.63.54l.66.06c.05-.16.05-.33,0-.49-.06-.24-.46-.14-.6-.05-.22.15-.4.35-.51.6-.13.3.33.31.5.22.75-.38,1.47-.82,2.14-1.33.1-.08.19-.22.07-.32s-.32-.07-.46-.02c-.29.12-.58.25-.85.4s-.53.29-.7.56c-.06.1,0,.2.1.24.13.06.28.03.4-.02.52-.22,1.01-.49,1.46-.81.1-.07.19-.22.07-.32-.13-.11-.32-.07-.46-.02-.82.3-1.6.68-2.34,1.13-.1.06-.18.2-.1.3.09.11.27.1.39.07.87-.23,1.72-.56,2.52-.99.11-.06.29-.2.18-.35s-.35-.09-.49-.04c-.5.19-.97.44-1.41.74-.09.06-.17.17-.11.27s.2.14.31.12c.37-.06.71-.19,1.05-.32l1.02-.38-.39-.34c-.85.52-1.82.82-2.66,1.36-.09.06-.19.2-.1.3.2.22.52.11.75.01.21-.08.42-.17.62-.26.41-.17.82-.35,1.23-.53.81-.37,1.61-.79,2.35-1.29.42-.29.82-.61,1.19-.96.11-.1.08-.25-.05-.31-.15-.07-.35-.03-.48.07-.44.33-.89.66-1.28,1.05s-.67.84-1.1,1.16-.9.56-1.37.78c-.44.21-.92.39-1.42.37-.17,0-.39.05-.47.21-.08.15.07.27.21.28h0Z"/>
  </g>
  <g>
    <path class="cls-3" d="M70.25,112.75c-.59.65-1.39,1.04-2.19,1.38-.44.19-.89.37-1.34.55-1.47.59-2.99,1.19-4.57,1.15,1.21-.38,2.08-1.39,3.03-2.23.82-.73,1.74-1.35,2.73-1.84-.16.26-.41.45-.66.64-.69.51-1.37,1.01-2.07,1.51.55-.21,1.11-.41,1.66-.62.06-.02.13-.05.19-.02-.52.4-1.09.73-1.7.98l-.1-.1c.05-.25.24-.44.42-.62.39-.37.8-.72,1.23-1.04,0,.16-.12.29-.23.4-.33.36-.67.71-1.01,1.05.4-.37.82-.71,1.26-1.04"/>
    <path class="cls-3" d="M69.95,112.66c-.43.47-.98.79-1.56,1.06-.65.31-1.33.57-2,.84-1.31.53-2.68,1.06-4.11,1.03l-.07.47c1.13-.37,1.98-1.18,2.83-1.97.91-.85,1.9-1.57,3.02-2.13l-.5-.22c-.13.2-.31.34-.5.48-.23.17-.46.34-.7.51-.47.35-.95.69-1.42,1.03-.11.08-.19.21-.07.32.12.11.33.07.46.02.28-.1.55-.21.83-.31l.38-.14.23-.08.08-.03c.11-.03.1-.04-.03-.04l-.02-.37c-.5.38-1.04.69-1.62.93l.49.04-.1-.1.03.12c.08-.32.42-.56.65-.77.28-.25.57-.49.87-.71l-.6-.11c-.03.25-.34.47-.5.64-.22.23-.45.46-.67.68-.12.12-.06.27.09.32.18.06.38-.02.51-.14.38-.35.78-.68,1.2-.99.12-.09.19-.24.05-.34s-.39-.04-.52.05c-.46.34-.9.71-1.33,1.09l.6.18c.26-.26.52-.53.78-.8.21-.22.48-.46.53-.78.04-.3-.47-.21-.6-.11-.37.27-.72.56-1.06.87-.3.28-.62.56-.73.97,0,.04,0,.08.03.12l.1.1c.13.13.33.1.49.04.64-.26,1.23-.61,1.78-1.03.13-.1.21-.32-.02-.37-.39-.08-.77.13-1.13.27s-.73.27-1.1.41l.39.34c.52-.37,1.04-.75,1.55-1.13.46-.34.97-.65,1.28-1.13.06-.1,0-.2-.1-.24-.12-.06-.29-.04-.4.02-1.12.56-2.14,1.27-3.07,2.11-.78.72-1.56,1.59-2.59,1.92-.11.04-.29.12-.31.26-.01.13.12.21.23.21,1.61.03,3.13-.51,4.61-1.11,1.35-.54,2.9-1.04,3.92-2.13.11-.12.07-.27-.09-.32-.16-.06-.4.01-.51.14h0Z"/>
  </g>
  <g>
    <path class="cls-3" d="M67.44,112.66c-.6.48-1.23.93-1.88,1.33,1.1-.73,2.25-1.37,3.46-1.9-.71.66-1.48,1.26-2.29,1.8.46-.42.97-.79,1.5-1.11-.85.71-1.8,1.29-2.83,1.71.12-.23.34-.4.59-.45-.8.75-2.07.83-2.89,1.56.18.11.41.03.61-.05,1.79-.72,3.62-1.49,5.05-2.8-.38.45-.78.88-1.24,1.24s-.99.65-1.56.78c-.47.1-.99.11-1.36.41.82-.2,1.6-.53,2.38-.86.36-.15.72-.3,1.08-.45.19-.08.39-.16.57-.28.22-.14.39-.34.57-.53.19-.2.37-.4.56-.6.09.28-.05.6-.27.79s-.51.3-.8.37c.14-.33.33-.63.57-.89l-.82.38c.02-.09.08-.17.15-.22"/>
    <path class="cls-3" d="M67.15,112.61c-.58.46-1.18.89-1.81,1.28l.44.19c1.07-.71,2.2-1.34,3.38-1.86l-.43-.19c-.69.64-1.43,1.23-2.22,1.75l.51.15c.44-.4.92-.76,1.43-1.07l-.51-.15c-.81.67-1.71,1.22-2.68,1.63l.48.14c.07-.12.17-.25.3-.29l-.33-.22c-.39.36-.89.54-1.38.74-.53.21-1.07.44-1.51.82-.08.07-.11.17,0,.22.3.14.64.06.94-.04.27-.1.53-.21.79-.32.54-.22,1.07-.45,1.59-.71,1.05-.51,2.05-1.11,2.92-1.89l-.62-.05c-.54.63-1.13,1.27-1.89,1.64-.72.35-1.57.24-2.22.74-.07.06-.11.14-.03.2.09.07.26.04.36.02,1.04-.26,2.02-.7,3.01-1.11.47-.2.98-.37,1.39-.69s.7-.72,1.04-1.08l-.7.1c.06.22,0,.45-.16.61s-.38.23-.59.29l.41.12c.13-.31.32-.59.55-.84.07-.08,0-.16-.08-.18-.12-.04-.28-.01-.4.04l-.82.38.5.09c.02-.06.03-.08.08-.12.12-.09.08-.21-.06-.24-.17-.03-.38.03-.51.14-.11.09-.18.19-.22.32-.07.22.43.12.5.09l.82-.38-.48-.14c-.25.28-.45.6-.6.94-.08.19.35.13.41.12.62-.18,1.61-.61,1.39-1.43-.03-.11-.23-.1-.31-.09-.15.02-.29.08-.39.19-.3.33-.59.7-.94.98-.16.13-.34.2-.52.28-.23.1-.46.19-.69.29-.89.37-1.77.76-2.7,1l.33.22c.26-.2.64-.2.94-.26.46-.09.89-.25,1.3-.47.78-.43,1.4-1.08,1.97-1.75.1-.12-.06-.18-.15-.19-.15-.01-.35.03-.47.14-.75.68-1.6,1.21-2.5,1.66-.44.22-.89.42-1.35.62-.23.1-.46.19-.69.28-.12.05-.25.1-.37.15-.08.03-.1.05-.18.02v.22c.4-.35.91-.53,1.4-.72.53-.21,1.07-.45,1.49-.84.07-.06.11-.14.03-.2-.09-.07-.26-.04-.36-.02-.36.09-.7.29-.88.62-.15.26.37.18.48.14,1.08-.45,2.08-1.05,2.97-1.8.1-.08.1-.19-.03-.23-.15-.05-.35,0-.48.08-.56.33-1.08.72-1.57,1.16-.09.08-.1.19.03.23.15.05.35,0,.48-.08.84-.55,1.62-1.16,2.36-1.84.08-.07.11-.16,0-.22-.12-.06-.31-.02-.43.03-1.23.55-2.42,1.19-3.54,1.94-.09.06-.22.19-.07.27.14.07.39,0,.51-.07.68-.42,1.33-.88,1.95-1.38.12-.09.08-.21-.06-.24-.17-.03-.38.03-.51.14h0Z"/>
  </g>
  <g>
    <path class="cls-3" d="M62.66,112.37c.45-.24.99-.15,1.5-.21.47-.06.9-.26,1.32-.46.49-.23.99-.46,1.48-.69.15-.07.31-.15.44-.26s.21-.29.18-.46c-.26.09-.45.32-.66.49-.36.3-.8.46-1.24.62-.6.22-1.21.44-1.81.66"/>
    <path class="cls-3" d="M63.55,112.75c-.14.07-.27.13-.41.18-.4.12-.24.05-.12.03.17-.03-.3,0-.12,0,.05,0,.11,0,.16,0,.34-.01.68-.02,1.02-.08.72-.13,1.39-.38,2.05-.69.49-.23.97-.45,1.46-.68.66-.32,1.51-.77,1.44-1.63-.03-.29-.5-.36-.71-.38-.45-.04-.88.06-1.3.22-.47.18-.83.47-1.2.79-.1.08-.23.12.01.01-.07.03-.14.09-.21.12-.25.15.31-.13.03-.02-.08.03-.15.06-.23.09-.7.27-1.41.52-2.12.77-.26.1-.62.3-.78.54-.11.16-.18.4,0,.56.48.43,1.39.18,1.91,0,.71-.26,1.42-.5,2.12-.77.39-.15.78-.33,1.13-.57.19-.13.37-.26.54-.41.06-.05.11-.1.17-.15.03-.02.06-.05.09-.07-.1.08-.21.15-.33.2l-2.01-.16v.07c0-.06,0-.13,0-.19,0,.05,0,.1-.02.14.05-.09.05-.09,0,0,.06-.08.14-.15.23-.2-.13.07-.08.05.13-.06-.23.09-.45.21-.68.32-.42.2-.84.4-1.27.59-.1.04-.23.08-.33.13.24-.08.28-.09.13-.05-.16.04-.11.03.14-.02-.12,0-.34-.01.04,0-.11,0-.22,0-.33.01-.86.03-1.62.19-2.39.57-.38.19-.88.81-.27,1.06.66.27,1.45,0,2.05-.29h0Z"/>
  </g>
  <g>
    <path class="cls-3" d="M62.58,115.27c.44-.17.89-.32,1.33-.47,1.03-.33,2.08-.61,3.06-1.08.88-.42,1.71-.99,2.67-1.18"/>
    <path class="cls-3" d="M63.15,115.88c.16-.06.32-.12.48-.18.08-.03.16-.06.24-.09-.18.06-.18.06-.01,0,.29-.09.58-.19.86-.28.69-.21,1.37-.43,2.04-.68s1.26-.56,1.87-.89c.05-.03.51-.26.22-.12.11-.05.22-.11.33-.16.15-.07.3-.14.45-.18-.38.12.13-.02.21-.04.44-.1,1.41-.54,1.25-1.13s-1.24-.44-1.65-.35c-.77.17-1.48.5-2.18.86-.15.08-.29.15-.43.23-.05.03-.51.26-.22.12-.29.14-.58.27-.88.39-.14.06-.28.11-.43.16-.17.06-.16.06,0,0-.08.03-.16.05-.25.08-.31.1-.62.2-.93.29-.72.23-1.44.47-2.15.74-.39.15-1.2.7-.77,1.18s1.42.23,1.92.04h0Z"/>
  </g>
  <path class="cls-3" d="M63.72,115.9c.6,0,1.62-.19,1.91-.81s-.24-.92-.8-.92c-.6,0-1.62.19-1.91.81s.24.92.8.92h0Z"/>
  <path class="cls-3" d="M64.03,116c1.6,0,2.27-1.98.29-1.98-1.6,0-2.27,1.98-.29,1.98h0Z"/>
  <path class="cls-3" d="M63.65,116.13c.65,0,1.59-.18,1.9-.85.27-.6-.24-1.07-.84-1.07-.65,0-1.59.18-1.9.85-.27.6.24,1.07.84,1.07h0Z"/>
  <g>
    <path class="cls-3" d="M64.64,114.77c-.5,0-1-.04-1.5-.11"/>
    <path class="cls-3" d="M64.64,114.65c-.5,0-1-.04-1.5-.11-.07,0-.13.06-.12.12,0,.07.06.12.12.12.5.06,1,.1,1.5.11.07,0,.13-.06.12-.12s-.05-.12-.12-.12h0Z"/>
  </g>
  <path class="cls-4" d="M68.33,110.45c-.6.3-1.22.54-1.87.74s-.36,1.13.27.96c1.06-.28,2.09-.63,3.11-1.05l-.39-.91c-1.2.86-2.55,1.46-3.89,2.05l.61.79c.42-.41,1.09-.46,1.64-.56.77-.13,1.53-.26,2.3-.39.24-.04.39-.33.36-.55-.04-.24-.24-.44-.49-.43-1.24.02-2.45.32-3.56.86-.24.12-.31.46-.18.68.14.25.44.3.68.18.95-.47,2-.71,3.06-.73l-.13-.98c-.82.14-1.64.28-2.46.42-.7.12-1.4.28-1.92.79-.18.17-.19.47-.04.66.17.21.41.23.65.13,1.34-.59,2.69-1.19,3.89-2.05.2-.15.31-.38.2-.62-.09-.2-.36-.39-.59-.29-1.01.42-2.05.77-3.11,1.05l.27.96c.72-.22,1.43-.51,2.11-.84.24-.12.31-.46.18-.68-.14-.25-.44-.3-.68-.18h0Z"/>
  <path class="cls-4" d="M69.21,109.69c-.45.07-.87.23-1.27.45l.73.56c.07-.17.12-.38.21-.53.05-.08.03-.09-.05-.03.07.03.13.08.18.14l-.13-.49-.02.08.23-.3c-.12.08-.25.09-.39.09-.06,0-.11,0-.16,0-.18-.04-.21.07-.09.36.31-.37.02-.97-.49-.84-.92.24-1.71.88-2.57,1.27-.92.41-1.89.73-2.85,1.05l.62.62c.04-.17.05-.3-.01-.47l-.23.56c1.15-.49,2.35-.82,3.49-1.32.55-.24,1.07-.57,1.69-.61.13,0,.28.02.4,0,.06,0,.12,0,.18.02l-.12-.32s-.4.17-.45.19c-.12.04-.25.07-.38.1-.55.14-1.09.33-1.59.61s-.95.65-1.43.95-1.01.49-1.56.63c-.28.08-.56.14-.85.21-.24.06-.78.28-1.01.21l.3.23-.05-.11.05.39s.45-.2.58-.25c.27-.1.56-.17.84-.24.54-.14,1.08-.26,1.61-.45.59-.22.36-1.16-.27-.96-.52.16-1.04.32-1.57.46-.22.06-.44.12-.66.17-.14.03-.28.06-.42.08-.06,0-.12.01-.18.02-.17,0-.12.04.15.15v.5c.17-.36.99-.4,1.33-.44.51-.05,1.02-.04,1.53-.04l-.35-.85c-.36.39-1.01.58-1.49.79-.28.12-.57.25-.86.36-.15.06-.58.32-.74.3l.43.25c-.07-.11-.11-.24-.15-.36-.13-.38-.53-.46-.84-.22-.56.45-1.09,1.61-.07,1.88.7.18,1.85-.05,1.97-.89.05-.33-.13-.61-.48-.63-.48-.03-1.09.16-1.28.65-.2.54.29.92.78.84l-.27-.96c-.45.08-.88.19-1.3.35-.59.22-.36,1.16.27.96,2.08-.65,4.22-1.12,6.18-2.11l-.61-.79c-1.7,1.37-4,1.65-5.86,2.73-.5.29-.16,1.04.39.91,2.36-.55,4.46-1.82,6.81-2.39.63-.15.36-1.12-.27-.96-2.35.57-4.46,1.84-6.81,2.39l.39.91c1.95-1.14,4.27-1.45,6.06-2.89.46-.37-.13-1.03-.61-.79-1.88.94-3.95,1.38-5.94,2l.27.96c.42-.16.85-.27,1.3-.35.64-.11.36-1.06-.27-.96h-.09c.13.03.26.05.39.06l-.08-.06.23.3c-.13.22-.12.28.03.18.09-.03.18-.03.27-.01l-.48-.63c-.05.3-.49.12-.66.2-.12-.04-.12,0-.01.13.05.19.09.19.13-.01.11-.09.19-.24.31-.34l-.84-.22c.13.36.23.81.68.85.4.03.89-.28,1.25-.43.45-.19.89-.38,1.34-.58s.89-.38,1.21-.73c.29-.32.09-.85-.35-.85-.78,0-1.56,0-2.33.15-.52.1-1.46.4-1.46,1.07,0,.77,1.02.6,1.48.51.81-.16,1.6-.43,2.38-.67l-.27-.96c-.72.27-1.48.39-2.22.62-.53.17-1.46.42-1.52,1.09-.08.95,1.07.65,1.6.53.75-.17,1.52-.34,2.24-.63s1.3-.82,1.97-1.22c.71-.43,1.48-.53,2.24-.83.51-.2,1.18-.74.76-1.36-.38-.55-1.31-.43-1.87-.32-.41.08-.79.27-1.16.44-.42.2-.84.36-1.28.51-.92.31-1.82.67-2.72,1.05-.19.08-.29.38-.23.56v-.06c-.06.35.24.74.63.62.94-.31,1.87-.62,2.78-1.01.45-.19.88-.39,1.31-.63s.85-.55,1.34-.67l-.49-.84c-.42.49-.17,1.14.45,1.31.49.13,1.43.1,1.64-.47s-.5-.99-.98-1.01c-.73-.03-.92.78-1.13,1.31-.17.43.39.76.73.56.33-.19.66-.29,1.03-.35.63-.1.36-1.07-.27-.96h0Z"/>
  <path class="cls-4" d="M66.23,113.21c1.21-.2,2.41-.43,3.52-.97.59-.29.07-1.11-.5-.86-2.15.91-4.46,1.44-6.33,2.92-.44.35.15,1.12.61.79.68-.5,1.47-.74,2.23-1.08s1.44-.85,2.24-1.09l-.39-.91c-1.22.63-2.52,1.07-3.82,1.51-.59.2-1.2.39-1.73.73s-.93.75-1.34,1.18.11,1.04.61.79c.55-.28,1.11-.49,1.7-.64l-.39-.91c-.53.28-1.4.52-1.6,1.14-.12.36.26.72.62.62.96-.29,1.96-.16,2.94-.28s1.87-.44,2.76-.82,1.75-.83,2.62-1.26c.8-.39,1.48-.85,1.85-1.69.26-.58-.61-1.09-.86-.5-.37.84-1.12,1.15-1.9,1.53s-1.59.8-2.41,1.14-1.7.6-2.6.65-1.79,0-2.66.27l.62.62c-.05.14.38-.14.48-.19l.67-.35c.51-.27.16-1.06-.39-.91-.68.18-1.32.43-1.94.74l.61.79c.39-.4.79-.82,1.28-1.11.58-.34,1.26-.51,1.89-.72,1.2-.41,2.39-.85,3.52-1.43.5-.26.16-1.08-.39-.91-.83.25-1.54.75-2.32,1.12s-1.66.62-2.39,1.15l.61.79c1.77-1.4,4.08-1.89,6.12-2.76l-.5-.86c-1.03.5-2.16.69-3.28.87-.63.1-.36,1.07.27.96h0Z"/>
  <path class="cls-4" d="M70.94,111.44c-2.16,1.19-4.45,2.07-6.85,2.64l.49.84c.38-.48,1.22-.65,1.77-.84.65-.22,1.31-.41,1.96-.61s1.28-.41,1.9-.68c.51-.22.91-.53,1.1-1.06.12-.35-.27-.74-.62-.62-1.49.52-3.11,1.02-4.43,1.9-.61.41-1.18.87-1.9,1.08s-1.48.28-2.21.5c-.63.19-.36,1.07.27.96,1.13-.18,2.26-.39,3.39-.61.5-.1,1.04-.17,1.53-.33.2-.06.37-.16.52-.31.09-.1.19-.35.3-.41l-.68-.68c-.53.79-1.54.99-2.42,1.1-.39.05-.81.05-1.17.23-.17.09-.28.26-.43.35-.18.1-.54.09-.74.12-.46.07-.44.7-.12.91s.65.07.86-.21c.37-.53-.49-1.03-.86-.5l-.04.06.3-.23h-.07c.13.03.26.05.39.06l-.06-.04-.12.91c.25-.04.53-.05.78-.13s.33-.25.52-.38.46-.13.69-.15c.29-.03.58-.07.86-.12,1-.18,1.92-.62,2.5-1.48.3-.44-.27-.89-.68-.68-.31.16-.38.55-.7.65-.5.16-1.06.23-1.58.33-1.07.21-2.14.41-3.22.58l.27.96c.72-.22,1.48-.29,2.21-.5s1.29-.59,1.89-1.01c1.33-.93,2.92-1.44,4.44-1.97l-.62-.62c-.16.45-1.05.63-1.44.77-.59.21-1.2.39-1.8.57s-1.2.37-1.79.6c-.51.2-1.09.38-1.44.82-.3.38-.03.96.49.84,2.47-.59,4.86-1.52,7.08-2.74.56-.31.06-1.17-.5-.86h0Z"/>
  <polyline class="cls-4" points="61.68 116.6 64.44 116.13 61.33 116.13 61.43 116.48"/>
</svg>